# xmcd
#
# Track frame offsets:
#	150
#	13599
#	30600
#	49424
#	66986
#	80941
#	96489
#	114533
#	134162
#	151258
#	167429
#	183866
#	203066
#	222422
#	236334
#	251486
#	270829
#	289088
#	302690
#
# Disc length: 4274
#
# Revision: 2
# Processed by: cddbd v1.5.1PL0 Copyright (c) Steve Scherf et al.
# Submitted via: CDex 1.50Beta7
# Normalized: r1:TDELIM( - )
#
DISCID=1010b013
DTITLE=Tim McGraw - Collection
DYEAR=2003
DGENRE=Country
TTITLE0=Tim McGraw - Down On The Farm
TTITLE1=tim mcgraw - Dust On The Bottle
TTITLE2=Tim Mcgraw - Forget about us
TTITLE3=Tim McGraw - Grown Men don't Cry
TTITLE4=Tim McGraw - Heart Dont Forget Something Like That
TTITLE5=Tim McGraw - I Like It I Love It
TTITLE6=Tim Mcgraw - I'm Amazed By You (1)
TTITLE7=Tim Mcgraw - Indian Outlaw
TTITLE8=Tim Mcgraw - Its Your Love
TTITLE9=Tim Mcgraw - Just to See Your Smile
TTITLE10=Tim McGraw - My Next 30 Years
TTITLE11=Tim Mcgraw - Red rag top
TTITLE12=Tim McGraw - She's My Kind of Rain
TTITLE13=Tim McGraw - Something Like That
TTITLE14=Tim Mcgraw - Things change
TTITLE15=Tim McGraw - Tim McGraw and the Dancehall Doctors - 13 - Real Good Man
TTITLE16=Tim Mcgraw - Unbroken
TTITLE17=Tim McGraw - Watermelon Crawl
TTITLE18=Tim Mcgraw - You get used to somebody
EXTD=YEAR: 2003
EXTT0=
EXTT1=
EXTT2=
EXTT3=
EXTT4=
EXTT5=
EXTT6=
EXTT7=
EXTT8=
EXTT9=
EXTT10=
EXTT11=
EXTT12=
EXTT13=
EXTT14=
EXTT15=
EXTT16=
EXTT17=
EXTT18=
PLAYORDER=
